<svg xmlns="http://www.w3.org/2000/svg" width="1600" height="900" viewBox="0 0 1600 900" role="img" aria-label="Capability card stack visual for skills and model tiers">
  <defs>
    <linearGradient id="c03bg" x1="0" y1="0" x2="1" y2="1">
      <stop offset="0%" stop-color="#f5f8ff"/>
      <stop offset="100%" stop-color="#ecf3ff"/>
    </linearGradient>
    <filter id="lift" x="-20%" y="-20%" width="140%" height="140%">
      <feDropShadow dx="0" dy="14" stdDeviation="10" flood-color="#0e1a2b" flood-opacity="0.12"/>
    </filter>
  </defs>

  <rect width="1600" height="900" fill="url(#c03bg)"/>
  <circle cx="1460" cy="120" r="170" fill="#0b5fff" opacity="0.08"/>
  <circle cx="220" cy="830" r="140" fill="#00a3a3" opacity="0.10"/>

  <g transform="translate(530,120) rotate(-5)">
    <rect width="560" height="660" rx="28" fill="#ffffff" stroke="#cbd8ee" filter="url(#lift)"/>
    <rect x="40" y="40" width="140" height="36" rx="18" fill="#e8efff"/>
    <rect x="40" y="98" width="480" height="18" rx="9" fill="#d6e2fb"/>
    <rect x="40" y="132" width="420" height="14" rx="7" fill="#e4ecfb"/>
    <rect x="40" y="172" width="220" height="140" rx="18" fill="#f3f7ff" stroke="#d9e5fb"/>
    <rect x="290" y="172" width="230" height="140" rx="18" fill="#eefaf9" stroke="#cdecea"/>
    <rect x="40" y="340" width="480" height="16" rx="8" fill="#dae6fc"/>
    <rect x="40" y="370" width="448" height="16" rx="8" fill="#e5eefb"/>
    <rect x="40" y="416" width="130" height="34" rx="17" fill="#0b5fff" opacity="0.15"/>
    <rect x="188" y="416" width="150" height="34" rx="17" fill="#00a3a3" opacity="0.16"/>
    <rect x="356" y="416" width="164" height="34" rx="17" fill="#ff7a18" opacity="0.14"/>
  </g>

  <g transform="translate(430,180) rotate(-2)">
    <rect width="560" height="660" rx="28" fill="#ffffff" stroke="#ced9ed" filter="url(#lift)"/>
    <rect x="40" y="40" width="170" height="38" rx="19" fill="#e7f7f5"/>
    <rect x="40" y="98" width="470" height="18" rx="9" fill="#d5ecea"/>
    <rect x="40" y="132" width="390" height="14" rx="7" fill="#e3f4f2"/>
    <circle cx="110" cy="228" r="52" fill="#eaf1ff" stroke="#0b5fff" stroke-opacity="0.35"/>
    <circle cx="280" cy="228" r="52" fill="#eafcf9" stroke="#00a3a3" stroke-opacity="0.35"/>
    <circle cx="450" cy="228" r="52" fill="#fff1e7" stroke="#ff7a18" stroke-opacity="0.35"/>
    <rect x="40" y="318" width="480" height="16" rx="8" fill="#deebfb"/>
    <rect x="40" y="348" width="410" height="16" rx="8" fill="#e9f0fb"/>
    <rect x="40" y="378" width="444" height="16" rx="8" fill="#e9f4f4"/>
    <rect x="40" y="430" width="220" height="170" rx="18" fill="#f4f8ff" stroke="#d6e2fa"/>
    <rect x="300" y="430" width="220" height="170" rx="18" fill="#f2fbfa" stroke="#d2ecea"/>
  </g>

  <g transform="translate(330,240)">
    <rect width="560" height="660" rx="28" fill="#ffffff" stroke="#d3deef" filter="url(#lift)"/>
    <rect x="40" y="40" width="190" height="40" rx="20" fill="#e8efff"/>
    <rect x="40" y="102" width="480" height="20" rx="10" fill="#d9e5fb"/>
    <rect x="40" y="138" width="420" height="16" rx="8" fill="#e8f0fc"/>

    <rect x="40" y="190" width="150" height="90" rx="16" fill="#eef4ff" stroke="#d7e4fb"/>
    <rect x="205" y="190" width="150" height="90" rx="16" fill="#eefaf9" stroke="#d2eeeb"/>
    <rect x="370" y="190" width="150" height="90" rx="16" fill="#fff4ec" stroke="#f5dfcd"/>

    <rect x="40" y="318" width="480" height="18" rx="9" fill="#dce8fc"/>
    <rect x="40" y="350" width="450" height="18" rx="9" fill="#e5effc"/>
    <rect x="40" y="382" width="430" height="18" rx="9" fill="#eef5fc"/>

    <rect x="40" y="438" width="480" height="178" rx="20" fill="#f7faff" stroke="#dbe6fa"/>
    <rect x="76" y="474" width="410" height="16" rx="8" fill="#dbe8fd"/>
    <rect x="76" y="504" width="360" height="16" rx="8" fill="#e6effd"/>
    <rect x="76" y="534" width="388" height="16" rx="8" fill="#edf4fd"/>
    <rect x="76" y="574" width="120" height="30" rx="15" fill="#0b5fff" opacity="0.18"/>
    <rect x="214" y="574" width="150" height="30" rx="15" fill="#00a3a3" opacity="0.18"/>
  </g>
</svg>
