<svg xmlns="http://www.w3.org/2000/svg" width="1920" height="1080" viewBox="0 0 1920 1080" role="img" aria-label="Debug feedback control loop with detect isolate verify stages">
  <defs>
    <linearGradient id="c05bg" x1="0" y1="0" x2="1" y2="1">
      <stop offset="0%" stop-color="#f7faff"/>
      <stop offset="100%" stop-color="#eef5ff"/>
    </linearGradient>
    <marker id="c05arrow" markerWidth="11" markerHeight="11" refX="9" refY="3.5" orient="auto" markerUnits="strokeWidth">
      <path d="M0,0 L9,3.5 L0,7 z" fill="#0b5fff"/>
    </marker>
    <filter id="c05shadow" x="-20%" y="-20%" width="140%" height="140%">
      <feDropShadow dx="0" dy="10" stdDeviation="9" flood-color="#0e1a2b" flood-opacity="0.14"/>
    </filter>
  </defs>

  <rect width="1920" height="1080" fill="url(#c05bg)"/>
  <circle cx="960" cy="500" r="330" fill="none" stroke="#0b5fff" stroke-opacity="0.14" stroke-width="2" stroke-dasharray="12 12"/>

  <path d="M960 210 C1170 210, 1340 370, 1340 560" fill="none" stroke="#0b5fff" stroke-width="10" marker-end="url(#c05arrow)"/>
  <path d="M1320 575 C1240 770, 1020 860, 820 785" fill="none" stroke="#00a3a3" stroke-width="10" marker-end="url(#c05arrow)"/>
  <path d="M800 772 C620 700, 570 470, 690 300" fill="none" stroke="#ff7a18" stroke-width="10" marker-end="url(#c05arrow)"/>
  <path d="M705 285 C780 225, 850 205, 940 205" fill="none" stroke="#0b5fff" stroke-width="10" stroke-opacity="0.6" marker-end="url(#c05arrow)"/>

  <g transform="translate(820,180)" filter="url(#c05shadow)">
    <rect width="280" height="130" rx="22" fill="#ffffff" stroke="#0b5fff" stroke-opacity="0.32"/>
    <text x="140" y="78" text-anchor="middle" font-family="Helvetica, Arial, sans-serif" font-size="40" font-weight="700" fill="#0e1a2b">Detect</text>
  </g>

  <g transform="translate(1210,510)" filter="url(#c05shadow)">
    <rect width="280" height="130" rx="22" fill="#ffffff" stroke="#00a3a3" stroke-opacity="0.34"/>
    <text x="140" y="78" text-anchor="middle" font-family="Helvetica, Arial, sans-serif" font-size="40" font-weight="700" fill="#0e1a2b">Isolate</text>
  </g>

  <g transform="translate(520,650)" filter="url(#c05shadow)">
    <rect width="280" height="130" rx="22" fill="#ffffff" stroke="#ff7a18" stroke-opacity="0.36"/>
    <text x="140" y="78" text-anchor="middle" font-family="Helvetica, Arial, sans-serif" font-size="40" font-weight="700" fill="#0e1a2b">Verify</text>
  </g>

  <g transform="translate(370,860)" filter="url(#c05shadow)">
    <rect width="1180" height="120" rx="22" fill="#ffffff" stroke="#0b5fff" stroke-opacity="0.2"/>
    <rect x="38" y="34" width="220" height="52" rx="26" fill="#0b5fff" opacity="0.15"/>
    <rect x="284" y="34" width="220" height="52" rx="26" fill="#00a3a3" opacity="0.15"/>
    <rect x="530" y="34" width="220" height="52" rx="26" fill="#ff7a18" opacity="0.16"/>
    <rect x="776" y="34" width="366" height="52" rx="26" fill="#eaf1ff"/>
    <text x="952" y="68" text-anchor="middle" font-family="Helvetica, Arial, sans-serif" font-size="28" fill="#173256" font-weight="700">MTTR  p95  success rate</text>
  </g>
</svg>
