<svg xmlns="http://www.w3.org/2000/svg" width="1920" height="1080" viewBox="0 0 1920 1080" role="img" aria-label="Research to report four-stage pipeline">
  <defs>
    <linearGradient id="c06bg" x1="0" y1="0" x2="1" y2="1">
      <stop offset="0%" stop-color="#f8fbff"/>
      <stop offset="100%" stop-color="#eef6ff"/>
    </linearGradient>
    <marker id="c06arrow" markerWidth="10" markerHeight="10" refX="8" refY="3" orient="auto" markerUnits="strokeWidth">
      <path d="M0,0 L8,3 L0,6 z" fill="#0b5fff"/>
    </marker>
    <filter id="c06shadow" x="-20%" y="-20%" width="140%" height="140%">
      <feDropShadow dx="0" dy="10" stdDeviation="8" flood-color="#0e1a2b" flood-opacity="0.12"/>
    </filter>
  </defs>

  <rect width="1920" height="1080" fill="url(#c06bg)"/>
  <path d="M120 230 H1800" stroke="#0b5fff" stroke-width="3" opacity="0.16"/>
  <path d="M120 850 H1800" stroke="#00a3a3" stroke-width="3" opacity="0.16"/>

  <g transform="translate(140,300)" filter="url(#c06shadow)">
    <rect width="380" height="480" rx="28" fill="#ffffff" stroke="#0b5fff" stroke-opacity="0.28"/>
    <circle cx="190" cy="145" r="78" fill="#e9f1ff" stroke="#0b5fff" stroke-opacity="0.34" stroke-width="4"/>
    <line x1="160" y1="145" x2="214" y2="145" stroke="#0b5fff" stroke-width="7"/>
    <line x1="187" y1="118" x2="187" y2="172" stroke="#0b5fff" stroke-width="7"/>
    <line x1="238" y1="190" x2="280" y2="232" stroke="#0b5fff" stroke-width="10"/>
    <rect x="64" y="278" width="252" height="18" rx="9" fill="#dce8fc"/>
    <rect x="64" y="310" width="220" height="15" rx="8" fill="#e8f0fc"/>
    <rect x="64" y="356" width="114" height="34" rx="17" fill="#0b5fff" opacity="0.16"/>
    <text x="190" y="432" text-anchor="middle" font-family="Helvetica, Arial, sans-serif" font-size="36" font-weight="700" fill="#0e1a2b">Search</text>
  </g>

  <g transform="translate(580,300)" filter="url(#c06shadow)">
    <rect width="380" height="480" rx="28" fill="#ffffff" stroke="#00a3a3" stroke-opacity="0.3"/>
    <rect x="90" y="78" width="200" height="190" rx="20" fill="#e8f8f6" stroke="#00a3a3" stroke-opacity="0.34"/>
    <rect x="120" y="118" width="140" height="14" rx="7" fill="#cce9e5"/>
    <rect x="120" y="145" width="118" height="14" rx="7" fill="#dcefeb"/>
    <rect x="120" y="172" width="132" height="14" rx="7" fill="#e8f4f2"/>
    <rect x="120" y="200" width="110" height="14" rx="7" fill="#f1f8f7"/>
    <rect x="64" y="300" width="252" height="18" rx="9" fill="#d4ece9"/>
    <rect x="64" y="332" width="230" height="15" rx="8" fill="#e4f3f1"/>
    <rect x="64" y="376" width="136" height="34" rx="17" fill="#00a3a3" opacity="0.18"/>
    <text x="190" y="432" text-anchor="middle" font-family="Helvetica, Arial, sans-serif" font-size="36" font-weight="700" fill="#0e1a2b">Screen</text>
  </g>

  <g transform="translate(1020,300)" filter="url(#c06shadow)">
    <rect width="380" height="480" rx="28" fill="#ffffff" stroke="#ff7a18" stroke-opacity="0.3"/>
    <circle cx="190" cy="145" r="74" fill="#fff2e8" stroke="#ff7a18" stroke-opacity="0.34" stroke-width="4"/>
    <path d="M140 150 L178 188 L242 110" fill="none" stroke="#ff7a18" stroke-width="12" stroke-linecap="round" stroke-linejoin="round"/>
    <rect x="64" y="286" width="252" height="18" rx="9" fill="#f8e3d4"/>
    <rect x="64" y="318" width="212" height="15" rx="8" fill="#faecdf"/>
    <rect x="64" y="362" width="156" height="34" rx="17" fill="#ff7a18" opacity="0.18"/>
    <text x="190" y="432" text-anchor="middle" font-family="Helvetica, Arial, sans-serif" font-size="36" font-weight="700" fill="#0e1a2b">Synthesize</text>
  </g>

  <g transform="translate(1460,300)" filter="url(#c06shadow)">
    <rect width="320" height="480" rx="28" fill="#ffffff" stroke="#0b5fff" stroke-opacity="0.3"/>
    <rect x="62" y="86" width="196" height="240" rx="20" fill="#eef3ff" stroke="#d6e1fa"/>
    <rect x="90" y="120" width="140" height="14" rx="7" fill="#d4e2fc"/>
    <rect x="90" y="148" width="120" height="14" rx="7" fill="#e4ecfc"/>
    <rect x="90" y="176" width="132" height="14" rx="7" fill="#edf3fd"/>
    <rect x="90" y="218" width="120" height="58" rx="14" fill="#ffffff" stroke="#d5e1fa"/>
    <text x="160" y="426" text-anchor="middle" font-family="Helvetica, Arial, sans-serif" font-size="34" font-weight="700" fill="#0e1a2b">Publish</text>
  </g>

  <line x1="522" y1="540" x2="565" y2="540" stroke="#0b5fff" stroke-width="6" marker-end="url(#c06arrow)"/>
  <line x1="962" y1="540" x2="1005" y2="540" stroke="#00a3a3" stroke-width="6" marker-end="url(#c06arrow)"/>
  <line x1="1402" y1="540" x2="1450" y2="540" stroke="#ff7a18" stroke-width="6" marker-end="url(#c06arrow)"/>
</svg>
