<svg xmlns="http://www.w3.org/2000/svg" width="1920" height="1080" viewBox="0 0 1920 1080" role="img" aria-label="Pull request merge gate flow diagram">
  <defs>
    <linearGradient id="c07bg" x1="0" y1="0" x2="1" y2="1">
      <stop offset="0%" stop-color="#f6f9ff"/>
      <stop offset="100%" stop-color="#eef5ff"/>
    </linearGradient>
    <marker id="c07arrow" markerWidth="10" markerHeight="10" refX="8" refY="3" orient="auto" markerUnits="strokeWidth">
      <path d="M0,0 L8,3 L0,6 z" fill="#0b5fff"/>
    </marker>
    <filter id="c07shadow" x="-20%" y="-20%" width="140%" height="140%">
      <feDropShadow dx="0" dy="10" stdDeviation="8" flood-color="#0e1a2b" flood-opacity="0.13"/>
    </filter>
  </defs>

  <rect width="1920" height="1080" fill="url(#c07bg)"/>

  <g filter="url(#c07shadow)">
    <rect x="150" y="380" width="280" height="140" rx="24" fill="#ffffff" stroke="#0b5fff" stroke-opacity="0.3"/>
    <text x="290" y="462" text-anchor="middle" font-family="Helvetica, Arial, sans-serif" font-size="34" font-weight="700" fill="#0e1a2b">Branch</text>

    <rect x="620" y="280" width="300" height="150" rx="24" fill="#ffffff" stroke="#00a3a3" stroke-opacity="0.3"/>
    <text x="770" y="370" text-anchor="middle" font-family="Helvetica, Arial, sans-serif" font-size="34" font-weight="700" fill="#0e1a2b">Checks</text>

    <rect x="620" y="560" width="300" height="150" rx="24" fill="#ffffff" stroke="#ff7a18" stroke-opacity="0.3"/>
    <text x="770" y="650" text-anchor="middle" font-family="Helvetica, Arial, sans-serif" font-size="34" font-weight="700" fill="#0e1a2b">Review</text>

    <rect x="1110" y="410" width="300" height="150" rx="24" fill="#ffffff" stroke="#0b5fff" stroke-opacity="0.3"/>
    <text x="1260" y="500" text-anchor="middle" font-family="Helvetica, Arial, sans-serif" font-size="34" font-weight="700" fill="#0e1a2b">Merge</text>

    <rect x="1540" y="410" width="250" height="150" rx="24" fill="#ffffff" stroke="#00a3a3" stroke-opacity="0.3"/>
    <text x="1665" y="500" text-anchor="middle" font-family="Helvetica, Arial, sans-serif" font-size="34" font-weight="700" fill="#0e1a2b">Monitor</text>
  </g>

  <path d="M430 450 C520 450, 560 360, 620 355" fill="none" stroke="#0b5fff" stroke-width="8" marker-end="url(#c07arrow)"/>
  <path d="M430 450 C520 450, 560 640, 620 635" fill="none" stroke="#8fa3c7" stroke-width="6" stroke-dasharray="10 10" marker-end="url(#c07arrow)"/>
  <path d="M920 355 C1030 360, 1050 455, 1110 485" fill="none" stroke="#0b5fff" stroke-width="8" marker-end="url(#c07arrow)"/>
  <path d="M920 635 C1010 620, 1060 565, 1110 525" fill="none" stroke="#ff7a18" stroke-width="7" marker-end="url(#c07arrow)"/>
  <path d="M1410 485 L1532 485" stroke="#0b5fff" stroke-width="8" marker-end="url(#c07arrow)"/>

  <path d="M760 710 C760 790, 920 840, 1110 760" fill="none" stroke="#8b9fbe" stroke-width="5" stroke-dasharray="11 11" marker-end="url(#c07arrow)"/>
  <rect x="930" y="760" width="290" height="84" rx="20" fill="#ffffff" stroke="#becce6"/>
  <text x="1075" y="812" text-anchor="middle" font-family="Helvetica, Arial, sans-serif" font-size="30" fill="#2b4368" font-weight="700">Fallback Path</text>
</svg>
