<svg xmlns="http://www.w3.org/2000/svg" width="2400" height="1350" viewBox="0 0 2400 1350" role="img" aria-label="Robotics horizon matte backdrop for closing slide watermark">
  <defs>
    <linearGradient id="sky" x1="0" y1="0" x2="0" y2="1">
      <stop offset="0%" stop-color="#edf3ff"/>
      <stop offset="52%" stop-color="#dbe8ff"/>
      <stop offset="100%" stop-color="#c6d9ff"/>
    </linearGradient>
    <linearGradient id="haze" x1="0" y1="0" x2="1" y2="0">
      <stop offset="0%" stop-color="#f8fbff" stop-opacity="0.85"/>
      <stop offset="65%" stop-color="#dbe6fb" stop-opacity="0.55"/>
      <stop offset="100%" stop-color="#bdcff5" stop-opacity="0.32"/>
    </linearGradient>
    <linearGradient id="ground" x1="0" y1="0" x2="1" y2="1">
      <stop offset="0%" stop-color="#bccff5"/>
      <stop offset="100%" stop-color="#a8c0ec"/>
    </linearGradient>
  </defs>

  <rect width="2400" height="1350" fill="url(#sky)"/>
  <rect width="2400" height="1350" fill="url(#haze)"/>

  <path d="M0 930 C360 890, 790 860, 1160 900 C1580 946, 1990 960, 2400 900 L2400 1350 L0 1350 Z" fill="url(#ground)"/>
  <path d="M0 1030 C340 995, 660 1002, 980 1040 C1270 1074, 1630 1098, 2400 1046 L2400 1350 L0 1350 Z" fill="#9cb7e7" opacity="0.46"/>

  <g opacity="0.42" transform="translate(1620,410)">
    <rect x="-220" y="620" width="840" height="100" rx="20" fill="#6f8ec6"/>
    <rect x="30" y="180" width="190" height="450" rx="26" fill="#6f8ec6"/>
    <rect x="-120" y="320" width="320" height="100" rx="36" fill="#6f8ec6"/>
    <rect x="190" y="350" width="270" height="86" rx="34" fill="#6f8ec6" transform="rotate(-18 190 350)"/>
    <circle cx="102" cy="150" r="62" fill="#6f8ec6"/>
    <circle cx="470" cy="300" r="76" fill="#6f8ec6"/>
    <circle cx="-70" cy="674" r="54" fill="#6f8ec6"/>
    <circle cx="560" cy="674" r="54" fill="#6f8ec6"/>
  </g>

  <path d="M1020 360 C1360 360, 1610 420, 1900 540" stroke="#7d9bd0" stroke-opacity="0.28" stroke-width="7" fill="none"/>
  <path d="M980 430 C1320 430, 1570 498, 1880 650" stroke="#6f8ec6" stroke-opacity="0.18" stroke-width="5" fill="none"/>
</svg>
